<?xml version="1.0" encoding="utf-8"?>
<!-- Generator: Adobe Illustrator 19.1.1, SVG Export Plug-In . SVG Version: 6.00 Build 0)  -->
<svg version="1.1"
	 id="svg2" xmlns:rdf="http://www.w3.org/1999/02/22-rdf-syntax-ns#" xmlns:svg="http://www.w3.org/2000/svg" xmlns:cc="http://creativecommons.org/ns#" xmlns:dc="http://purl.org/dc/elements/1.1/"
	 xmlns="http://www.w3.org/2000/svg" xmlns:xlink="http://www.w3.org/1999/xlink" x="0px" y="0px" width="85px" height="85px"
	 viewBox="-331.1 716.1 85 85" style="enable-background:new -331.1 716.1 85 85;" xml:space="preserve">
<style type="text/css">
	.st0{fill:#b00060;}
	.st1{fill:#FFFFFF;}
</style>
<g id="g10" transform="matrix(1.25,0,0,-1.25,0,286.8125)">
	<g id="g12" transform="scale(0.1,0.1)">
		<path id="path14" class="st0" d="M-2648.7-4114.3h680v680h-680V-4114.3z"/>
		<path id="path16" class="st1" d="M-2266.1-3778.4c0,0,0-79.7,0-89.5c0-16.2-2.7-27.3-10.1-37.2c-7.4-9.8-17.1-13.5-32.5-13.5
			s-25.1,3.6-32.5,13.5c-7.4,9.8-10.1,21-10.1,37.2c0,9.8,0,89.5,0,89.5c-85,1.8-159.1-6.9-224.5-20.6c0.5-5.2,1.2-10.3,1.9-15.4
			c22.8-156.3,144.4-225.7,265.3-225.7c121.1,0,242.5,69.5,265.3,225.7c0.7,5.1,1.3,10.2,1.9,15.4
			C-2107-3785.4-2181.1-3776.6-2266.1-3778.4"/>
		<path id="path18" class="st1" d="M-2038.4-3561.7v58.9c-83.2-40.9-159.8-93.1-227.7-154.7v-19.2
			C-2196.1-3629.1-2119.8-3590.2-2038.4-3561.7"/>
		<path id="path20" class="st1" d="M-2266.1-3711.8c71.5,34,147.9,59.6,227.7,75.5v42.7c-80.8-23.8-157.1-57.7-227.7-100.1V-3711.8"
			/>
		<path id="path22" class="st1" d="M-2038.4-3702.4v38.1c-79.3-11.5-155.6-32.5-227.7-61.8v-15.7
			C-2193.3-3720-2117.1-3706.7-2038.4-3702.4"/>
		<path id="path24" class="st1" d="M-2579.1-3561.7v58.9c83.2-40.9,159.7-93.1,227.7-154.7v-19.2
			C-2421.4-3629.1-2497.8-3590.2-2579.1-3561.7"/>
		<path id="path26" class="st1" d="M-2351.4-3711.8c-71.5,34-147.9,59.6-227.7,75.5v42.7c80.6-23.8,157-57.7,227.7-100.2V-3711.8"/>
		<path id="path28" class="st1" d="M-2579.1-3702.4v38.1c79.3-11.5,155.6-32.5,227.7-61.8v-15.7
			C-2424.2-3720-2500.4-3706.7-2579.1-3702.4"/>
		<path id="path30" class="st1" d="M-2579.1-3771.1v38.3c2.9,0,109,3,227.7-24.4v-8.5C-2453-3756.2-2538.4-3765.6-2579.1-3771.1"/>
		<path id="path32" class="st1" d="M-2038.4-3771.1v38.3c-2.9,0-109,3-227.7-24.4v-8.5C-2164.6-3756.2-2079.1-3765.6-2038.4-3771.1"
			/>
	</g>
</g>
</svg>